# xmcd CD database file generated by Grip 3.3.1
#
# Track frame offsets:
#       150
#       19820
#       34700
#       52164
#       75039
#       93318
#       110605
#       131363
#       152218
#       168581
#       188883
#       203903
#
# Disc length: 3017 seconds
#
# Revision: 1
# Processed by: cddbd v1.5.2PL0 Copyright (c) Steve Scherf et al.
# Submitted via: Grip 3.3.1
#
DISCID=960bc70c
DTITLE=Ronnie Davis - Battles Fought Here At Home
DYEAR=2007
DGENRE=Country
TTITLE0=Battles Fought Here at Home
TTITLE1=Lightning
TTITLE2=Like You've Never Been Hurt Before
TTITLE3=Gardens of Stone
TTITLE4=Cut and Run
TTITLE5=See Me Cry
TTITLE6=Baby Come Back to Me
TTITLE7=Ghost From the Past
TTITLE8=No Winners
TTITLE9=I've Been Thinkin'
TTITLE10=They're With the Angels
TTITLE11=Iron Horses
EXTD=
EXTT0=
EXTT1=
EXTT2=
EXTT3=
EXTT4=
EXTT5=
EXTT6=
EXTT7=
EXTT8=
EXTT9=
EXTT10=
EXTT11=
PLAYORDER=
